<?xml version="1.0" encoding="utf-8"?>
<!-- Generator: Adobe Illustrator 18.0.0, SVG Export Plug-In . SVG Version: 6.00 Build 0)  -->
<!DOCTYPE svg PUBLIC "-//W3C//DTD SVG 1.1//EN" "http://www.w3.org/Graphics/SVG/1.1/DTD/svg11.dtd">
<svg version="1.1" xmlns="http://www.w3.org/2000/svg" xmlns:xlink="http://www.w3.org/1999/xlink" x="0px" y="0px"
	 viewBox="0 0 1920 3000" enable-background="new 0 0 1920 3000" xml:space="preserve">
<g id="Layer_11">
	<linearGradient id="SVGID_1_" gradientUnits="userSpaceOnUse" x1="70.5966" y1="3042.5229" x2="1850.7302" y2="-40.759">
		<stop  offset="0" style="stop-color:#191157"/>
		<stop  offset="0.25" style="stop-color:#33348D"/>
		<stop  offset="0.5" style="stop-color:#1F71B7"/>
		<stop  offset="0.5904" style="stop-color:#2855A4"/>
		<stop  offset="0.6892" style="stop-color:#303D93"/>
		<stop  offset="0.75" style="stop-color:#33348D"/>
		<stop  offset="1" style="stop-color:#191157"/>
	</linearGradient>
	<rect x="0" fill="url(#SVGID_1_)" width="1921.3" height="3001.8"/>
</g>
<g id="Logo" display="none">
	<g display="inline">
		<path d="M1520,2956.6c0-41.7,0-83.5,0-125.2c117.1,0,234.2,0,351.3,0c0.1,1.5,0.4,2.9,0.4,4.4c0,38.7,0,77.5,0,116.2
			c0,1.4-0.2,2.9-0.2,4.5c-1.9,0-3.4,0-4.9,0c-114,0-228,0-342.1,0C1523,2956.5,1521.5,2956.6,1520,2956.6z M1789.8,2934.9
			c11.5,0,22.7,0.5,33.9-0.1c15.5-0.9,25.5-10.4,26.9-25.8c0.9-10.1,0.8-20.3,0-30.4c-1.2-14.6-10.1-24-24.9-25.5
			c-11.8-1.2-23.8-0.2-35.9-0.2C1789.8,2880.1,1789.8,2907.4,1789.8,2934.9z M1605.6,2875.3c-0.2-1.4-0.2-2.2-0.5-3
			c-4-15.1-15.8-23.7-32.4-23.4c-16.6,0.2-28.8,10.1-30.8,26.3c-1.2,9.6-0.9,19.5-0.7,29.2c0.5,18.7,11.8,30.1,30.4,31.4
			c14.3,1,27.3-6.5,31.8-18.4c3.7-9.7,2.8-19.9,2.7-30.2c-10.3,0-20.1-0.1-30,0.1c-1,0-2.6,1-3,1.9c-1.6,4.1-2.8,8.4-4.4,13.3
			c6.5,0,12.5,0,18.4,0c0.9,9.9-3.5,16-11.8,16.8c-9,0.9-14.1-3.2-14.7-13c-0.6-9.6-0.4-19.2,0.1-28.8c0.3-6.7,4.2-10.7,9.9-11.7
			c6.9-1.2,12.1,1.3,15.3,7.2c0.6,1.1,2,2.3,3.1,2.3C1594.3,2875.4,1599.8,2875.3,1605.6,2875.3z M1617.8,2852.7c0,1.7,0,3,0,4.3
			c0,15.6,0,31.2,0,46.8c0,18.9,10.9,30.6,29.9,32c18.4,1.3,32.7-11.9,32.7-30.3c0-16.1,0-32.3,0-48.4c0-1.4,0-2.9,0-4.3
			c-7,0-13.4,0-20,0c0,15.9,0,31.4,0,47c0,2.8,0.1,5.7-0.3,8.5c-0.7,5.9-4.5,9.2-10.3,9.4c-6.4,0.2-10.2-2.7-11.4-8.6
			c-0.4-2.1-0.4-4.3-0.4-6.5c0-15.2,0-30.4,0-45.5c0-1.4,0-2.9,0-4.4C1631.1,2852.7,1624.7,2852.7,1617.8,2852.7z M1733.7,2852.7
			c0,27.4,0,54.7,0,82.1c15.6,0,30.9,0,46.4,0c0-5.9,0-11.6,0-17.8c-9,0-17.7,0-26.8,0c0-21.8,0-43,0-64.3
			C1746.6,2852.7,1740.3,2852.7,1733.7,2852.7z M1715.7,2934.9c0-27.6,0-54.9,0-82.1c-6.7,0-13.1,0-19.6,0c0,27.5,0,54.7,0,82.1
			C1702.7,2934.9,1709.1,2934.9,1715.7,2934.9z"/>
		<path fill="#FFFFFF" d="M1520,2956.6c1.5,0,3-0.1,4.5-0.1c114,0,228,0,342.1,0c1.5,0,3,0,4.9,0c0.1-1.6,0.2-3.1,0.2-4.5
			c0-38.7,0-77.5,0-116.2c0-1.5-0.3-2.9-0.4-4.4c0.5,0.3,1.5,0.4,1.6,0.8c0.2,0.9,0.1,1.9,0.1,2.8c0,40.8,0,81.6,0,122.4
			c-116.4,0-232.8,0-349.2,0C1522.5,2957.4,1521.3,2956.9,1520,2956.6z"/>
		<path fill="#FFFFFF" d="M1789.8,2934.9c0-27.5,0-54.8,0-82.1c12.1,0,24.1-0.9,35.9,0.2c14.8,1.4,23.6,10.9,24.9,25.5
			c0.9,10.1,0.9,20.4,0,30.4c-1.4,15.4-11.4,24.9-26.9,25.8C1812.5,2935.4,1801.3,2934.9,1789.8,2934.9z M1809.8,2917.1
			c3.6,0,7.1,0.2,10.6-0.1c5.8-0.5,9.5-3.5,9.8-9.4c0.5-9.2,0.5-18.4,0-27.6c-0.2-5.4-3.9-8.9-9-9.4c-3.7-0.4-7.5-0.1-11.4-0.1
			C1809.8,2886.1,1809.8,2901.4,1809.8,2917.1z"/>
		<path fill="#FFFFFF" d="M1605.6,2875.3c-5.8,0-11.2,0.1-16.6-0.1c-1.1,0-2.5-1.3-3.1-2.3c-3.2-5.9-8.4-8.4-15.3-7.2
			c-5.7,1-9.6,5-9.9,11.7c-0.4,9.6-0.7,19.2-0.1,28.8c0.6,9.9,5.7,13.9,14.7,13c8.2-0.8,12.7-6.9,11.8-16.8c-5.9,0-11.9,0-18.4,0
			c1.6-4.9,2.8-9.2,4.4-13.3c0.3-0.9,1.9-1.9,3-1.9c9.9-0.1,19.7-0.1,30-0.1c0.1,10.3,1,20.5-2.7,30.2c-4.5,12-17.5,19.4-31.8,18.4
			c-18.6-1.2-29.9-12.7-30.4-31.4c-0.3-9.7-0.5-19.6,0.7-29.2c2-16.2,14.2-26.1,30.8-26.3c16.5-0.2,28.3,8.3,32.4,23.4
			C1605.3,2873.1,1605.4,2873.9,1605.6,2875.3z"/>
		<path fill="#FFFFFF" d="M1617.8,2852.7c7,0,13.3,0,20.2,0c0,1.6,0,3,0,4.4c0,15.2,0,30.4,0,45.5c0,2.2,0,4.4,0.4,6.5
			c1.1,6,5,8.8,11.4,8.6c5.9-0.1,9.6-3.4,10.3-9.4c0.3-2.8,0.3-5.7,0.3-8.5c0-15.6,0-31.2,0-47c6.6,0,13,0,20,0c0,1.4,0,2.8,0,4.3
			c0,16.1,0,32.3,0,48.4c0,18.4-14.3,31.6-32.7,30.3c-19-1.4-29.9-13-29.9-32c0-15.6,0-31.2,0-46.8
			C1617.8,2855.7,1617.8,2854.3,1617.8,2852.7z"/>
		<path fill="#FFFFFF" d="M1733.7,2852.7c6.5,0,12.9,0,19.6,0c0,21.3,0,42.5,0,64.3c9.1,0,17.8,0,26.8,0c0,6.2,0,11.8,0,17.8
			c-15.4,0-30.8,0-46.4,0C1733.7,2907.4,1733.7,2880.1,1733.7,2852.7z"/>
		<path fill="#FFFFFF" d="M1715.7,2934.9c-6.6,0-13,0-19.6,0c0-27.4,0-54.6,0-82.1c6.5,0,12.9,0,19.6,0
			C1715.7,2880,1715.7,2907.3,1715.7,2934.9z"/>
		<path d="M1809.8,2917.1c0-15.7,0-30.9,0-46.5c3.9,0,7.7-0.3,11.4,0.1c5.1,0.5,8.8,4,9,9.4c0.4,9.2,0.5,18.4,0,27.6
			c-0.3,5.9-4,8.9-9.8,9.4C1817,2917.3,1813.5,2917.1,1809.8,2917.1z"/>
	</g>
</g>
<g id="MEDIA_LIB">
</g>
<g id="MEDIA_UPLOAD">
</g>
<g id="SCENARIOS">
</g>
<g id="EVENTS_1_">
</g>
<g id="NEW_EVENT">
</g>
<g id="ANNOUNCEMENTS">
</g>
<g id="MODULES">
</g>
<g id="User_Settings">
</g>
<g id="HEADER">
</g>
<g id="Layer_12">
</g>
</svg>
