<?xml version="1.0" encoding="utf-8"?>
<!-- Generator: Adobe Illustrator 18.0.0, SVG Export Plug-In . SVG Version: 6.00 Build 0)  -->
<!DOCTYPE svg PUBLIC "-//W3C//DTD SVG 1.1//EN" "http://www.w3.org/Graphics/SVG/1.1/DTD/svg11.dtd">
<svg version="1.1" id="Layer_1" xmlns="http://www.w3.org/2000/svg" xmlns:xlink="http://www.w3.org/1999/xlink" x="0px" y="0px"
	 viewBox="0 0 177.1 162" enable-background="new 0 0 177.1 162" xml:space="preserve">
<g>
	<ellipse fill="none" cx="88.6" cy="141.9" rx="88.6" ry="20"/>
	<g>
		<g>
			<linearGradient id="SVGID_1_" gradientUnits="userSpaceOnUse" x1="0.5667" y1="70.1617" x2="175.9837" y2="70.1617">
				<stop  offset="0" style="stop-color:#FFFFFF;stop-opacity:0.3"/>
				<stop  offset="1" style="stop-color:#FFFFFF;stop-opacity:0.3"/>
			</linearGradient>
			<path fill="url(#SVGID_1_)" d="M78.4,140c0,0-0.1,0-0.1,0L0.8,112.2c-0.1,0-0.2-0.2-0.2-0.3V34.6c0-0.1,0.1-0.2,0.2-0.3l77.5-34
				c0,0,0.1,0,0.1,0c0,0,0.1,0,0.1,0l97.3,34c0.1,0,0.2,0.2,0.2,0.3v77.3c0,0.1-0.1,0.3-0.2,0.3L78.4,140
				C78.4,140,78.4,140,78.4,140z"/>
			<path fill="#FFFFFF" d="M78.4,0.6l97.3,34v5.2v67v5.2l-97.3,27.8L0.9,111.9v-5.2v-67v-5.2L78.4,0.6 M78.4,0c-0.1,0-0.2,0-0.2,0.1
				l-77.5,34c-0.2,0.1-0.4,0.3-0.4,0.5v5.2v67v5.2c0,0.3,0.2,0.5,0.4,0.6l77.5,27.8c0.1,0,0.1,0,0.2,0c0.1,0,0.1,0,0.2,0l97.3-27.8
				c0.3-0.1,0.4-0.3,0.4-0.6v-5.2v-67v-5.2c0-0.3-0.2-0.5-0.4-0.6L78.6,0C78.5,0,78.5,0,78.4,0L78.4,0z"/>
		</g>
		<radialGradient id="SVGID_2_" cx="76.6811" cy="8.8994" r="130.1624" gradientUnits="userSpaceOnUse">
			<stop  offset="0" style="stop-color:#FFFFFF;stop-opacity:0.5"/>
			<stop  offset="0.2886" style="stop-color:#FFFFFF;stop-opacity:0"/>
			<stop  offset="1" style="stop-color:#FFFFFF;stop-opacity:0.3"/>
		</radialGradient>
		
			<polygon fill="url(#SVGID_2_)" stroke="#FFFFFF" stroke-width="0.3" stroke-linecap="round" stroke-linejoin="round" stroke-miterlimit="10" points="
			78.4,131.9 0.9,106.8 0.9,39.8 78.4,8.4 		"/>
		<radialGradient id="SVGID_3_" cx="79.7962" cy="9.3645" r="140.9592" gradientUnits="userSpaceOnUse">
			<stop  offset="0" style="stop-color:#FFFFFF;stop-opacity:0.5"/>
			<stop  offset="0.2886" style="stop-color:#FFFFFF;stop-opacity:0"/>
			<stop  offset="1" style="stop-color:#FFFFFF;stop-opacity:0.3"/>
		</radialGradient>
		
			<polygon fill="url(#SVGID_3_)" stroke="#FFFFFF" stroke-width="0.3" stroke-linecap="round" stroke-linejoin="round" stroke-miterlimit="10" points="
			78.4,131.9 175.7,106.8 175.7,39.8 78.4,8.4 		"/>
		<radialGradient id="SVGID_4_" cx="79.7962" cy="9.3645" r="140.9592" gradientUnits="userSpaceOnUse">
			<stop  offset="0" style="stop-color:#FFFFFF;stop-opacity:0.5"/>
			<stop  offset="0.2886" style="stop-color:#FFFFFF;stop-opacity:0"/>
			<stop  offset="1" style="stop-color:#FFFFFF;stop-opacity:0.3"/>
		</radialGradient>
		
			<polygon fill="url(#SVGID_4_)" stroke="#FFFFFF" stroke-width="0.3" stroke-linecap="round" stroke-linejoin="round" stroke-miterlimit="10" points="
			78.4,131.9 175.7,106.8 175.7,39.8 78.4,8.4 		"/>
		<linearGradient id="SVGID_5_" gradientUnits="userSpaceOnUse" x1="0.8664" y1="123.2518" x2="78.3882" y2="123.2518">
			<stop  offset="0" style="stop-color:#FFFFFF;stop-opacity:0"/>
			<stop  offset="1" style="stop-color:#FFFFFF;stop-opacity:0.3"/>
		</linearGradient>
		
			<polygon fill="url(#SVGID_5_)" stroke="#FFFFFF" stroke-width="0.3" stroke-linecap="round" stroke-linejoin="round" stroke-miterlimit="10" points="
			0.9,106.8 0.9,111.9 78.4,139.7 78.4,131.9 		"/>
		<linearGradient id="SVGID_6_" gradientUnits="userSpaceOnUse" x1="78.3882" y1="123.2518" x2="175.6834" y2="123.2518">
			<stop  offset="0" style="stop-color:#FFFFFF;stop-opacity:0.3"/>
			<stop  offset="1" style="stop-color:#FFFFFF;stop-opacity:0"/>
		</linearGradient>
		
			<polygon fill="url(#SVGID_6_)" stroke="#FFFFFF" stroke-width="0.3" stroke-linecap="round" stroke-linejoin="round" stroke-miterlimit="10" points="
			78.4,131.9 78.4,139.7 175.7,111.9 175.7,106.8 		"/>
		<linearGradient id="SVGID_7_" gradientUnits="userSpaceOnUse" x1="0.8664" y1="20.1895" x2="78.3882" y2="20.1895">
			<stop  offset="0" style="stop-color:#FFFFFF;stop-opacity:0"/>
			<stop  offset="1" style="stop-color:#FFFFFF;stop-opacity:0.3"/>
		</linearGradient>
		
			<polygon fill="url(#SVGID_7_)" stroke="#FFFFFF" stroke-width="0.3" stroke-linecap="round" stroke-linejoin="round" stroke-miterlimit="10" points="
			0.9,34.6 0.9,39.8 78.4,8.4 78.4,0.6 		"/>
		<linearGradient id="SVGID_8_" gradientUnits="userSpaceOnUse" x1="78.3882" y1="20.1895" x2="175.6834" y2="20.1895">
			<stop  offset="0" style="stop-color:#FFFFFF;stop-opacity:0.3"/>
			<stop  offset="1" style="stop-color:#FFFFFF;stop-opacity:0"/>
		</linearGradient>
		
			<polygon fill="url(#SVGID_8_)" stroke="#FFFFFF" stroke-width="0.3" stroke-linecap="round" stroke-linejoin="round" stroke-miterlimit="10" points="
			78.4,0.6 78.4,8.4 175.7,39.8 175.7,34.6 		"/>
		<g>
			<defs>
				<polygon id="SVGID_9_" points="101.8,125.9 163,110.1 163,52.1 101.8,39.8 				"/>
			</defs>
			<clipPath id="SVGID_10_">
				<use xlink:href="#SVGID_9_"  overflow="visible"/>
			</clipPath>
			
				<polygon clip-path="url(#SVGID_10_)" fill="none" stroke="#FFFFFF" stroke-width="0.3" stroke-linecap="round" stroke-linejoin="round" stroke-miterlimit="10" points="
				98.3,97.9 175.7,107.2 175.7,40.2 98.3,48.2 			"/>
			<use xlink:href="#SVGID_9_"  overflow="visible" fill="none" stroke="#FFFFFF" stroke-width="0.3" stroke-miterlimit="10"/>
		</g>
	</g>
</g>
</svg>
